<?xml version="1.0" standalone="no"?>
<!DOCTYPE svg PUBLIC "-//W3C//DTD SVG 20010904//EN"
 "http://www.w3.org/TR/2001/REC-SVG-20010904/DTD/svg10.dtd">
<svg version="1.0" xmlns="http://www.w3.org/2000/svg"
 width="512.000000pt" height="512.000000pt" viewBox="0 0 512.000000 512.000000"
 preserveAspectRatio="xMidYMid meet">
<metadata>
Created by potrace 1.11, written by Peter Selinger 2001-2013
</metadata>
<g transform="translate(0.000000,512.000000) scale(0.100000,-0.100000)"
fill="#000000" stroke="none">
<path d="M2562 4645 c-7 -14 -88 -157 -180 -318 -153 -265 -282 -491 -779
-1357 -90 -157 -167 -292 -173 -300 -9 -14 -45 -77 -103 -180 -14 -25 -63
-110 -109 -190 -46 -80 -87 -152 -91 -160 -4 -8 -17 -31 -28 -50 -28 -46 -201
-344 -229 -395 -12 -22 -164 -287 -338 -590 -173 -302 -320 -559 -326 -570 -6
-11 -19 -31 -29 -44 -9 -13 -17 -28 -17 -32 0 -5 371 -8 847 -7 l848 3 0 185
c1 102 0 190 -2 195 -2 7 -180 10 -511 9 -279 -1 -511 1 -515 3 -4 3 -4 10 1
16 8 10 147 250 224 387 14 25 58 101 97 169 39 68 71 128 71 133 0 4 3 8 8 8
4 0 12 10 18 23 23 48 88 163 100 178 8 8 14 18 14 22 0 3 77 140 171 304 94
164 253 441 352 616 100 175 190 332 201 350 10 17 113 199 228 402 116 204
219 382 229 397 11 15 19 32 19 38 0 18 16 11 28 -12 6 -13 26 -50 45 -83 86
-152 309 -547 402 -710 56 -99 116 -205 133 -235 16 -30 47 -84 67 -120 41
-72 59 -103 150 -265 34 -60 100 -177 147 -260 47 -82 96 -170 110 -195 14
-25 92 -162 173 -305 81 -143 157 -278 169 -300 12 -22 81 -143 153 -270 71
-126 137 -244 146 -260 l15 -31 -503 1 -504 0 -1 -197 0 -197 830 2 c456 1
830 4 830 7 0 3 -22 43 -48 90 -136 240 -278 490 -300 530 -14 25 -62 110
-107 190 -46 80 -95 168 -111 195 -15 28 -65 118 -112 200 -46 83 -96 170
-110 195 -51 91 -597 1060 -680 1205 -47 83 -97 173 -112 200 -15 28 -62 110
-104 184 -42 73 -76 135 -76 137 0 1 -19 35 -43 76 -24 40 -57 98 -74 128 -16
30 -40 73 -53 95 -93 164 -114 201 -137 243 -14 26 -73 130 -131 232 -58 102
-118 210 -135 240 -39 73 -42 75 -55 45z"/>
</g>
</svg>
